<mxfile host="Electron" agent="Mozilla/5.0 (Macintosh; Intel Mac OS X 10_15_7) AppleWebKit/537.36 (KHTML, like Gecko) draw.io/24.7.17 Chrome/128.0.6613.36 Electron/32.0.1 Safari/537.36" version="24.7.17">
  <diagram id="ewioOewcE_K6yOggEhHt" name="Page-1">
    <mxGraphModel dx="1466" dy="1103" grid="1" gridSize="10" guides="1" tooltips="1" connect="1" arrows="1" fold="1" page="1" pageScale="1" pageWidth="850" pageHeight="1100" math="0" shadow="0">
      <root>
        <mxCell id="0" />
        <mxCell id="1" parent="0" />
        <mxCell id="cbelmwtijwSXBwkwiqVw-67" style="edgeStyle=orthogonalEdgeStyle;rounded=0;orthogonalLoop=1;jettySize=auto;html=1;exitX=0.5;exitY=0;exitDx=0;exitDy=0;entryX=0.096;entryY=0.246;entryDx=0;entryDy=0;entryPerimeter=0;strokeColor=#d79b00;strokeWidth=3;align=center;verticalAlign=middle;fontFamily=Helvetica;fontSize=11;fontColor=default;labelBackgroundColor=default;endArrow=none;endFill=0;fillColor=#ffe6cc;" edge="1" parent="1" source="cbelmwtijwSXBwkwiqVw-50" target="cbelmwtijwSXBwkwiqVw-10">
          <mxGeometry relative="1" as="geometry">
            <Array as="points">
              <mxPoint x="270" y="280" />
              <mxPoint x="270" y="430" />
            </Array>
          </mxGeometry>
        </mxCell>
        <mxCell id="cbelmwtijwSXBwkwiqVw-66" style="edgeStyle=orthogonalEdgeStyle;rounded=0;orthogonalLoop=1;jettySize=auto;html=1;exitX=0.25;exitY=0;exitDx=0;exitDy=0;fillColor=#ffe6cc;strokeColor=#d79b00;strokeWidth=3;endArrow=none;endFill=0;" edge="1" parent="1" source="cbelmwtijwSXBwkwiqVw-50" target="cbelmwtijwSXBwkwiqVw-27">
          <mxGeometry relative="1" as="geometry">
            <Array as="points">
              <mxPoint x="240" y="255" />
              <mxPoint x="240" y="240" />
            </Array>
          </mxGeometry>
        </mxCell>
        <mxCell id="cbelmwtijwSXBwkwiqVw-2" value="12V Bat Stack" style="pointerEvents=1;verticalLabelPosition=bottom;shadow=0;dashed=0;align=center;html=1;verticalAlign=top;shape=mxgraph.electrical.miscellaneous.batteryStack;direction=north;" vertex="1" parent="1">
          <mxGeometry x="70" y="500" width="60" height="120" as="geometry" />
        </mxCell>
        <mxCell id="cbelmwtijwSXBwkwiqVw-72" style="edgeStyle=orthogonalEdgeStyle;rounded=0;orthogonalLoop=1;jettySize=auto;html=1;exitX=0;exitY=0;exitDx=60;exitDy=40;exitPerimeter=0;entryX=1;entryY=0.25;entryDx=0;entryDy=0;strokeColor=#82b366;strokeWidth=3;align=center;verticalAlign=middle;fontFamily=Helvetica;fontSize=11;fontColor=default;labelBackgroundColor=default;endArrow=none;endFill=0;fillColor=#d5e8d4;" edge="1" parent="1" source="cbelmwtijwSXBwkwiqVw-10" target="cbelmwtijwSXBwkwiqVw-23">
          <mxGeometry relative="1" as="geometry">
            <Array as="points">
              <mxPoint x="550" y="470" />
              <mxPoint x="581" y="470" />
            </Array>
          </mxGeometry>
        </mxCell>
        <mxCell id="cbelmwtijwSXBwkwiqVw-10" value="DASH" style="shape=display;whiteSpace=wrap;html=1;" vertex="1" parent="1">
          <mxGeometry x="490" y="420" width="80" height="40" as="geometry" />
        </mxCell>
        <mxCell id="cbelmwtijwSXBwkwiqVw-11" value="&lt;font color=&quot;#ffffff&quot;&gt;Main Computer&lt;/font&gt;" style="sketch=0;pointerEvents=1;shadow=0;dashed=0;html=1;strokeColor=#666666;fillColor=#f5f5f5;aspect=fixed;labelPosition=center;verticalLabelPosition=bottom;verticalAlign=top;align=center;outlineConnect=0;shape=mxgraph.vvd.cpu;fontColor=#333333;" vertex="1" parent="1">
          <mxGeometry x="490" y="70" width="80" height="80" as="geometry" />
        </mxCell>
        <mxCell id="cbelmwtijwSXBwkwiqVw-76" style="edgeStyle=orthogonalEdgeStyle;rounded=0;orthogonalLoop=1;jettySize=auto;html=1;exitX=1;exitY=0.75;exitDx=0;exitDy=0;entryX=1;entryY=0.25;entryDx=0;entryDy=0;strokeColor=#82b366;strokeWidth=3;align=center;verticalAlign=middle;fontFamily=Helvetica;fontSize=11;fontColor=default;labelBackgroundColor=default;endArrow=none;endFill=0;fillColor=#d5e8d4;" edge="1" parent="1" source="cbelmwtijwSXBwkwiqVw-20">
          <mxGeometry relative="1" as="geometry">
            <mxPoint x="581.4285714285713" y="892.8571428571429" as="targetPoint" />
          </mxGeometry>
        </mxCell>
        <mxCell id="cbelmwtijwSXBwkwiqVw-20" value="CVT TEMP" style="shape=hexagon;perimeter=hexagonPerimeter2;whiteSpace=wrap;html=1;fixedSize=1;" vertex="1" parent="1">
          <mxGeometry x="470" y="770" width="120" height="80" as="geometry" />
        </mxCell>
        <mxCell id="cbelmwtijwSXBwkwiqVw-75" style="edgeStyle=orthogonalEdgeStyle;rounded=0;orthogonalLoop=1;jettySize=auto;html=1;exitX=1;exitY=0.75;exitDx=0;exitDy=0;entryX=1;entryY=0.25;entryDx=0;entryDy=0;strokeColor=#82b366;strokeWidth=3;align=center;verticalAlign=middle;fontFamily=Helvetica;fontSize=11;fontColor=default;labelBackgroundColor=default;endArrow=none;endFill=0;fillColor=#d5e8d4;" edge="1" parent="1" source="cbelmwtijwSXBwkwiqVw-21" target="cbelmwtijwSXBwkwiqVw-20">
          <mxGeometry relative="1" as="geometry" />
        </mxCell>
        <mxCell id="cbelmwtijwSXBwkwiqVw-21" value="Hall Effect REAR" style="shape=hexagon;perimeter=hexagonPerimeter2;whiteSpace=wrap;html=1;fixedSize=1;" vertex="1" parent="1">
          <mxGeometry x="470" y="670" width="120" height="80" as="geometry" />
        </mxCell>
        <mxCell id="cbelmwtijwSXBwkwiqVw-74" style="edgeStyle=orthogonalEdgeStyle;rounded=0;orthogonalLoop=1;jettySize=auto;html=1;exitX=1;exitY=0.75;exitDx=0;exitDy=0;entryX=1;entryY=0.25;entryDx=0;entryDy=0;strokeColor=#82b366;strokeWidth=3;align=center;verticalAlign=middle;fontFamily=Helvetica;fontSize=11;fontColor=default;labelBackgroundColor=default;endArrow=none;endFill=0;fillColor=#d5e8d4;" edge="1" parent="1" source="cbelmwtijwSXBwkwiqVw-22" target="cbelmwtijwSXBwkwiqVw-21">
          <mxGeometry relative="1" as="geometry" />
        </mxCell>
        <mxCell id="cbelmwtijwSXBwkwiqVw-22" value="Hall Effect FR" style="shape=hexagon;perimeter=hexagonPerimeter2;whiteSpace=wrap;html=1;fixedSize=1;" vertex="1" parent="1">
          <mxGeometry x="470" y="570" width="120" height="80" as="geometry" />
        </mxCell>
        <mxCell id="cbelmwtijwSXBwkwiqVw-73" style="edgeStyle=orthogonalEdgeStyle;rounded=0;orthogonalLoop=1;jettySize=auto;html=1;exitX=1;exitY=0.75;exitDx=0;exitDy=0;entryX=1;entryY=0.25;entryDx=0;entryDy=0;strokeColor=#82b366;strokeWidth=3;align=center;verticalAlign=middle;fontFamily=Helvetica;fontSize=11;fontColor=default;labelBackgroundColor=default;endArrow=none;endFill=0;fillColor=#d5e8d4;" edge="1" parent="1" source="cbelmwtijwSXBwkwiqVw-23" target="cbelmwtijwSXBwkwiqVw-22">
          <mxGeometry relative="1" as="geometry" />
        </mxCell>
        <mxCell id="cbelmwtijwSXBwkwiqVw-23" value="Hall Effect FL" style="shape=hexagon;perimeter=hexagonPerimeter2;whiteSpace=wrap;html=1;fixedSize=1;" vertex="1" parent="1">
          <mxGeometry x="470" y="480" width="120" height="80" as="geometry" />
        </mxCell>
        <mxCell id="cbelmwtijwSXBwkwiqVw-69" style="edgeStyle=orthogonalEdgeStyle;rounded=0;orthogonalLoop=1;jettySize=auto;html=1;exitX=1;exitY=0.25;exitDx=0;exitDy=0;endArrow=none;endFill=0;fillColor=#d5e8d4;strokeColor=#82b366;strokeWidth=3;" edge="1" parent="1" source="cbelmwtijwSXBwkwiqVw-27" target="cbelmwtijwSXBwkwiqVw-11">
          <mxGeometry relative="1" as="geometry">
            <mxPoint x="620" y="110" as="targetPoint" />
            <Array as="points">
              <mxPoint x="581" y="110" />
            </Array>
          </mxGeometry>
        </mxCell>
        <mxCell id="cbelmwtijwSXBwkwiqVw-70" style="edgeStyle=orthogonalEdgeStyle;rounded=0;orthogonalLoop=1;jettySize=auto;html=1;exitX=1;exitY=0.75;exitDx=0;exitDy=0;entryX=1;entryY=0.25;entryDx=0;entryDy=0;strokeColor=#82b366;strokeWidth=3;align=center;verticalAlign=middle;fontFamily=Helvetica;fontSize=11;fontColor=default;labelBackgroundColor=default;endArrow=none;endFill=0;fillColor=#d5e8d4;" edge="1" parent="1" source="cbelmwtijwSXBwkwiqVw-27">
          <mxGeometry relative="1" as="geometry">
            <mxPoint x="581.4285714285713" y="337.8571428571429" as="targetPoint" />
          </mxGeometry>
        </mxCell>
        <mxCell id="cbelmwtijwSXBwkwiqVw-27" value="IMU" style="shape=hexagon;perimeter=hexagonPerimeter2;whiteSpace=wrap;html=1;fixedSize=1;" vertex="1" parent="1">
          <mxGeometry x="470" y="200" width="120" height="80" as="geometry" />
        </mxCell>
        <mxCell id="cbelmwtijwSXBwkwiqVw-48" value="POWER&lt;div&gt;REGULATOR&lt;/div&gt;" style="rounded=0;whiteSpace=wrap;html=1;direction=south;align=left;" vertex="1" parent="1">
          <mxGeometry x="50" y="20" width="120" height="360" as="geometry" />
        </mxCell>
        <mxCell id="cbelmwtijwSXBwkwiqVw-53" style="edgeStyle=orthogonalEdgeStyle;rounded=0;orthogonalLoop=1;jettySize=auto;html=1;exitX=0.062;exitY=0.025;exitDx=0;exitDy=0;exitPerimeter=0;fillColor=#dae8fc;strokeColor=#6c8ebf;strokeWidth=4;endArrow=none;endFill=0;" edge="1" parent="1" source="cbelmwtijwSXBwkwiqVw-49" target="cbelmwtijwSXBwkwiqVw-11">
          <mxGeometry relative="1" as="geometry">
            <mxPoint x="400" y="50" as="targetPoint" />
            <Array as="points">
              <mxPoint x="169" y="30" />
              <mxPoint x="210" y="30" />
              <mxPoint x="210" y="10" />
              <mxPoint x="540" y="10" />
            </Array>
          </mxGeometry>
        </mxCell>
        <mxCell id="cbelmwtijwSXBwkwiqVw-55" style="edgeStyle=orthogonalEdgeStyle;rounded=0;orthogonalLoop=1;jettySize=auto;html=1;exitX=0.119;exitY=-0.05;exitDx=0;exitDy=0;exitPerimeter=0;strokeColor=#6c8ebf;strokeWidth=4;align=center;verticalAlign=middle;fontFamily=Helvetica;fontSize=11;fontColor=default;labelBackgroundColor=default;endArrow=none;fillColor=#dae8fc;endFill=0;" edge="1" parent="1" source="cbelmwtijwSXBwkwiqVw-49" target="cbelmwtijwSXBwkwiqVw-11">
          <mxGeometry relative="1" as="geometry">
            <Array as="points">
              <mxPoint x="220" y="45" />
              <mxPoint x="220" y="20" />
              <mxPoint x="530" y="20" />
            </Array>
          </mxGeometry>
        </mxCell>
        <mxCell id="cbelmwtijwSXBwkwiqVw-58" style="edgeStyle=orthogonalEdgeStyle;rounded=0;orthogonalLoop=1;jettySize=auto;html=1;exitX=0.25;exitY=0;exitDx=0;exitDy=0;entryX=0;entryY=0.5;entryDx=0;entryDy=0;strokeColor=#6c8ebf;strokeWidth=4;align=center;verticalAlign=middle;fontFamily=Helvetica;fontSize=11;fontColor=default;labelBackgroundColor=default;endArrow=none;fillColor=#dae8fc;endFill=0;" edge="1" parent="1" source="cbelmwtijwSXBwkwiqVw-49">
          <mxGeometry relative="1" as="geometry">
            <mxPoint x="470" y="355" as="targetPoint" />
            <Array as="points">
              <mxPoint x="410" y="72" />
              <mxPoint x="410" y="355" />
            </Array>
          </mxGeometry>
        </mxCell>
        <mxCell id="cbelmwtijwSXBwkwiqVw-61" style="edgeStyle=orthogonalEdgeStyle;rounded=0;orthogonalLoop=1;jettySize=auto;html=1;entryX=0;entryY=0.5;entryDx=0;entryDy=0;strokeColor=#6c8ebf;strokeWidth=4;align=center;verticalAlign=middle;fontFamily=Helvetica;fontSize=11;fontColor=default;labelBackgroundColor=default;endArrow=none;fillColor=#dae8fc;endFill=0;" edge="1" parent="1" target="cbelmwtijwSXBwkwiqVw-23">
          <mxGeometry relative="1" as="geometry">
            <mxPoint x="170" y="110" as="sourcePoint" />
            <Array as="points">
              <mxPoint x="370" y="110" />
              <mxPoint x="370" y="520" />
            </Array>
          </mxGeometry>
        </mxCell>
        <mxCell id="cbelmwtijwSXBwkwiqVw-62" style="edgeStyle=orthogonalEdgeStyle;rounded=0;orthogonalLoop=1;jettySize=auto;html=1;exitX=0.5;exitY=0;exitDx=0;exitDy=0;entryX=0;entryY=0.5;entryDx=0;entryDy=0;strokeColor=#6c8ebf;strokeWidth=4;align=center;verticalAlign=middle;fontFamily=Helvetica;fontSize=11;fontColor=default;labelBackgroundColor=default;endArrow=none;fillColor=#dae8fc;endFill=0;" edge="1" parent="1" source="cbelmwtijwSXBwkwiqVw-49" target="cbelmwtijwSXBwkwiqVw-22">
          <mxGeometry relative="1" as="geometry">
            <mxPoint x="340" y="550" as="targetPoint" />
            <Array as="points">
              <mxPoint x="170" y="130" />
              <mxPoint x="350" y="130" />
              <mxPoint x="350" y="610" />
            </Array>
          </mxGeometry>
        </mxCell>
        <mxCell id="cbelmwtijwSXBwkwiqVw-63" style="edgeStyle=orthogonalEdgeStyle;rounded=0;orthogonalLoop=1;jettySize=auto;html=1;exitX=0.601;exitY=0.002;exitDx=0;exitDy=0;entryX=0;entryY=0.5;entryDx=0;entryDy=0;exitPerimeter=0;strokeColor=#6c8ebf;strokeWidth=4;align=center;verticalAlign=middle;fontFamily=Helvetica;fontSize=11;fontColor=default;labelBackgroundColor=default;endArrow=none;fillColor=#dae8fc;endFill=0;" edge="1" parent="1" source="cbelmwtijwSXBwkwiqVw-49" target="cbelmwtijwSXBwkwiqVw-21">
          <mxGeometry relative="1" as="geometry">
            <mxPoint x="330" y="479.9999999999999" as="targetPoint" />
            <Array as="points">
              <mxPoint x="170" y="150" />
              <mxPoint x="330" y="150" />
              <mxPoint x="330" y="710" />
            </Array>
          </mxGeometry>
        </mxCell>
        <mxCell id="cbelmwtijwSXBwkwiqVw-64" style="edgeStyle=orthogonalEdgeStyle;rounded=0;orthogonalLoop=1;jettySize=auto;html=1;exitX=0.706;exitY=0.053;exitDx=0;exitDy=0;entryX=0;entryY=0.5;entryDx=0;entryDy=0;exitPerimeter=0;strokeColor=#6c8ebf;strokeWidth=4;align=center;verticalAlign=middle;fontFamily=Helvetica;fontSize=11;fontColor=default;labelBackgroundColor=default;endArrow=none;fillColor=#dae8fc;endFill=0;" edge="1" parent="1" source="cbelmwtijwSXBwkwiqVw-49" target="cbelmwtijwSXBwkwiqVw-20">
          <mxGeometry relative="1" as="geometry">
            <mxPoint x="270" y="700" as="targetPoint" />
            <Array as="points">
              <mxPoint x="168" y="170" />
              <mxPoint x="310" y="170" />
              <mxPoint x="310" y="810" />
            </Array>
          </mxGeometry>
        </mxCell>
        <mxCell id="cbelmwtijwSXBwkwiqVw-80" style="edgeStyle=orthogonalEdgeStyle;rounded=0;orthogonalLoop=1;jettySize=auto;html=1;entryX=0;entryY=0.25;entryDx=0;entryDy=0;exitX=0.795;exitY=0.061;exitDx=0;exitDy=0;exitPerimeter=0;strokeColor=#6c8ebf;strokeWidth=4;align=center;verticalAlign=middle;fontFamily=Helvetica;fontSize=11;fontColor=default;labelBackgroundColor=default;endArrow=none;endFill=0;fillColor=#dae8fc;" edge="1" parent="1" source="cbelmwtijwSXBwkwiqVw-49" target="cbelmwtijwSXBwkwiqVw-78">
          <mxGeometry relative="1" as="geometry">
            <mxPoint x="175" y="190" as="sourcePoint" />
            <Array as="points">
              <mxPoint x="168" y="190" />
              <mxPoint x="290" y="190" />
              <mxPoint x="290" y="895" />
              <mxPoint x="469" y="895" />
            </Array>
          </mxGeometry>
        </mxCell>
        <mxCell id="cbelmwtijwSXBwkwiqVw-49" value="5V" style="rounded=0;whiteSpace=wrap;html=1;direction=south;" vertex="1" parent="1">
          <mxGeometry x="130" y="20" width="40" height="210" as="geometry" />
        </mxCell>
        <mxCell id="cbelmwtijwSXBwkwiqVw-50" value="3V" style="rounded=0;whiteSpace=wrap;html=1;direction=south;" vertex="1" parent="1">
          <mxGeometry x="130" y="230" width="40" height="100" as="geometry" />
        </mxCell>
        <mxCell id="cbelmwtijwSXBwkwiqVw-79" style="edgeStyle=orthogonalEdgeStyle;rounded=0;orthogonalLoop=1;jettySize=auto;html=1;entryX=0;entryY=0.5;entryDx=0;entryDy=0;endArrow=none;endFill=0;strokeWidth=3;fillColor=#e1d5e7;strokeColor=#9673a6;" edge="1" parent="1" source="cbelmwtijwSXBwkwiqVw-51" target="cbelmwtijwSXBwkwiqVw-78">
          <mxGeometry relative="1" as="geometry">
            <mxPoint x="300" y="850" as="targetPoint" />
            <Array as="points">
              <mxPoint x="250" y="355" />
              <mxPoint x="250" y="915" />
            </Array>
          </mxGeometry>
        </mxCell>
        <mxCell id="cbelmwtijwSXBwkwiqVw-51" value="30V" style="rounded=0;whiteSpace=wrap;html=1;" vertex="1" parent="1">
          <mxGeometry x="130" y="330" width="40" height="50" as="geometry" />
        </mxCell>
        <mxCell id="cbelmwtijwSXBwkwiqVw-52" style="edgeStyle=orthogonalEdgeStyle;rounded=0;orthogonalLoop=1;jettySize=auto;html=1;entryX=1;entryY=0.583;entryDx=0;entryDy=0;entryPerimeter=0;endArrow=none;endFill=0;fillColor=#f8cecc;strokeColor=#b85450;strokeWidth=5;" edge="1" parent="1" source="cbelmwtijwSXBwkwiqVw-2" target="cbelmwtijwSXBwkwiqVw-48">
          <mxGeometry relative="1" as="geometry" />
        </mxCell>
        <mxCell id="cbelmwtijwSXBwkwiqVw-60" style="edgeStyle=orthogonalEdgeStyle;rounded=0;orthogonalLoop=1;jettySize=auto;html=1;exitX=0.5;exitY=0;exitDx=0;exitDy=0;entryX=0;entryY=0.5;entryDx=0;entryDy=0;entryPerimeter=0;strokeColor=#6c8ebf;strokeWidth=4;align=center;verticalAlign=middle;fontFamily=Helvetica;fontSize=11;fontColor=default;labelBackgroundColor=default;endArrow=none;fillColor=#dae8fc;endFill=0;" edge="1" parent="1" source="cbelmwtijwSXBwkwiqVw-49" target="cbelmwtijwSXBwkwiqVw-10">
          <mxGeometry relative="1" as="geometry">
            <Array as="points">
              <mxPoint x="170" y="90" />
              <mxPoint x="390" y="90" />
              <mxPoint x="390" y="440" />
            </Array>
          </mxGeometry>
        </mxCell>
        <mxCell id="cbelmwtijwSXBwkwiqVw-71" style="edgeStyle=orthogonalEdgeStyle;rounded=0;orthogonalLoop=1;jettySize=auto;html=1;exitX=1;exitY=0.75;exitDx=0;exitDy=0;entryX=0;entryY=0;entryDx=60;entryDy=0;entryPerimeter=0;strokeColor=#82b366;strokeWidth=3;align=center;verticalAlign=middle;fontFamily=Helvetica;fontSize=11;fontColor=default;labelBackgroundColor=default;endArrow=none;endFill=0;fillColor=#d5e8d4;" edge="1" parent="1" target="cbelmwtijwSXBwkwiqVw-10">
          <mxGeometry relative="1" as="geometry">
            <mxPoint x="581.4285714285713" y="372.1428571428571" as="sourcePoint" />
          </mxGeometry>
        </mxCell>
        <mxCell id="cbelmwtijwSXBwkwiqVw-77" value="Tachometer" style="shape=hexagon;perimeter=hexagonPerimeter2;whiteSpace=wrap;html=1;fixedSize=1;" vertex="1" parent="1">
          <mxGeometry x="470" y="315" width="120" height="80" as="geometry" />
        </mxCell>
        <mxCell id="cbelmwtijwSXBwkwiqVw-78" value="BRAKE PRESURE REAR (DATA)" style="shape=hexagon;perimeter=hexagonPerimeter2;whiteSpace=wrap;html=1;fixedSize=1;" vertex="1" parent="1">
          <mxGeometry x="460" y="870" width="130" height="90" as="geometry" />
        </mxCell>
      </root>
    </mxGraphModel>
  </diagram>
</mxfile>
